<mxfile host="app.diagrams.net" agent="Mozilla/5.0 (Macintosh; Intel Mac OS X 10_15_7) AppleWebKit/537.36 (KHTML, like Gecko) Chrome/132.0.0.0 Safari/537.36" version="26.0.14">
  <diagram name="第 1 页" id="S6MdPBXJJxFEqjAbz1d1">
    <mxGraphModel dx="1402" dy="700" grid="0" gridSize="10" guides="1" tooltips="1" connect="1" arrows="1" fold="1" page="1" pageScale="1" pageWidth="827" pageHeight="1169" math="0" shadow="0">
      <root>
        <mxCell id="0" />
        <mxCell id="1" parent="0" />
        <mxCell id="JkvlF9FbP7FgS3dPEu8n-59" value="Vocoder" style="rounded=1;whiteSpace=wrap;html=1;fillColor=#f9f7ed;strokeColor=#36393d;" parent="1" vertex="1">
          <mxGeometry x="115" y="187" width="403" height="34" as="geometry" />
        </mxCell>
        <mxCell id="JkvlF9FbP7FgS3dPEu8n-61" value="" style="rounded=1;whiteSpace=wrap;html=1;fillColor=#fff2cc;strokeColor=#d6b656;" parent="1" vertex="1">
          <mxGeometry x="120" y="231" width="30" height="30" as="geometry" />
        </mxCell>
        <mxCell id="JkvlF9FbP7FgS3dPEu8n-63" value="" style="rounded=1;whiteSpace=wrap;html=1;fillColor=#fff2cc;strokeColor=#d6b656;" parent="1" vertex="1">
          <mxGeometry x="375.5" y="237" width="30" height="30" as="geometry" />
        </mxCell>
        <mxCell id="JkvlF9FbP7FgS3dPEu8n-64" value="" style="rounded=1;whiteSpace=wrap;html=1;fillColor=#fff2cc;strokeColor=#d6b656;" parent="1" vertex="1">
          <mxGeometry x="485" y="237" width="30" height="30" as="geometry" />
        </mxCell>
        <mxCell id="JkvlF9FbP7FgS3dPEu8n-67" value="" style="rounded=1;whiteSpace=wrap;html=1;fillColor=#fff2cc;strokeColor=#d6b656;" parent="1" vertex="1">
          <mxGeometry x="255" y="234" width="30" height="30" as="geometry" />
        </mxCell>
        <mxCell id="JkvlF9FbP7FgS3dPEu8n-68" value="" style="shape=image;verticalLabelPosition=bottom;labelBackgroundColor=default;verticalAlign=top;aspect=fixed;imageAspect=0;image=data:image/png,iVBORw0KGgoAAAANSUhEUgAAARQAAABKCAYAAAB6g6tKAAABWGlDQ1BJQ0MgUHJvZmlsZQAAKJFtkM8rw3EYx18bmvxccnTYcWoWQzhuO7DaYQ35UcrXd7PRNh/ffSXi4uSolKOTXBWFI3c3Rck/4KjVJPT1fDdsw1NPz+vz7v15enqDs1FTKlMPZHOmER8NeaZnZj2uJ5y04aYVr6bnVTAWi4qF71lbxTsc9rztsXcVziIP26/jL+37u4fx1M7pX39NNSWSeV3mu7RfV4YJDp9wbN1UNm8JdxpylPCezakyH9m8UObLkmciHha+EXbraS0h/CjsW6jSU1WczazpXzfY17ckc5PjMjuku4gxRhQPAYYYJkSf5PO/f6DkD7OCYgODJVKkMeVvUBRFhqRwhBw6fnylnb3Sg3bOv/OraKteGHkG53JFm9uE8xNoVxXN2y/vebiOK83QflJ1FOvzi/2BMjdfQMOBZRWmwNUNH/eW9XZhWR/HUPcAV8VPahVjsmHmX74AAABsZVhJZk1NACoAAAAIAAQBGgAFAAAAAQAAAD4BGwAFAAAAAQAAAEYBKAADAAAAAQACAACHaQAEAAAAAQAAAE4AAAAAAAAAkAAAAAEAAACQAAAAAQACoAIABAAAAAEAAAEUoAMABAAAAAEAAABKAAAAALCG3rAAAAAJcEhZcwAAFiUAABYlAUlSJPAAABdbSURBVHgB7Z2JVxxJcoeD+wZxgxACgTh1IWl2Zqzd9cy+tXftnZ2/1n623/O+sb3P9oxHGmk0QkL3CUIHh7gPAXJ8URRqpG7U3dXdVHVn8oruOjvzl1GRcWVk0Tst4opDwCHgEMgAAsUZeIZ7hEPAIeAQMAQcQ3GE4BBwCGQMAcdQMgale5BDwCHgGIqjAYeAQyBjCDiGkjEo3YMcAg6B0ihDsL29LRubm/J2861sbW1JSUmJVFVXSXlZmRQVFUW5aTmpu8MvOMw4Sd++fStra+uys7MtpaVlUlZWqluZ0WPwX4jWEyLLUOjIjY0NmZ2bl4U3C7K8vCKVVZVy7NhROdLQYJ3pmEpiYnT4JcYm2TNguLO9I8tLKzI59Vw2Nzekvr5Ot3o5csSjwWSflS/XRZKhWEfu7Mj8/ILcvDkhT59NyuLikjESpJWenm5paKiXioqKfOmnjLbD4ZcZOBnQoMGnT5/J+PgtWYAGlZEcP35MTp8akba2cpOUC2lgiyRD2VFmsqmMY+r5c/nuu7/Ktes3ZHllRY4e7ZT1jU1BlB8Y6HcMJcF74/BLAEyKhxcXl+X27bty5adr8t//+3/y4sVLqamulgvnz9rg1tTUqCpQaUGp35FkKIywMI2FhUW5f/+h3LhxU1bX15WprEpfb6/0dB/TUaI7RfIonMsdfpnp63Wluenpl/LgwWNlLPfk2eSUVJSXmx1vbn7ebCvFxcXCViglki1VfqIGMJiKSipqEEPN2d7ake23W0Inr6soyijsSnwEHH7xcUn1KIPa2vqaGmTXbICD5nASrK9vqH1PnQVKjzDvQiqRZCheB6lBTDsQo9i2fr57p9+VyWxtbZvHZ0f3XTkIAYffQegkc25HmQVM4616GGEcnuS3YzQIs4E+HUNJBkl3jUPAIeAQiINAJG0ocdpx4CFGCiSXpaUlefnytayoAVc0TKWmpkba21qlrq5OjWclBaXrHgjYByfj4qfX1NQ6/D6A6sBd1PE3GuKA7W9padmuraurNY8k3qHKysoD74/CyYJgKDATmMjdu/flL3/5L3n46LExlL6+Xvm7338tw0MDxlzKyyOsAWaR2uLip7/n4feVDA8POvySwB9mcu3aDRm/eUvu3LlnNDg8OCCnTo/K+bEz0tHhGEoSMB7+JUTREvg29Xxarl67Lr+oV0h9efJmYUFGRoYsGK6iskLKpSztyqIr8ztETPK9oqLcXIZE70Y9DiE+frKL36Di12Uu+vJyh99BBLSwsKTMZEL+R13MExN37NKZmTmjRZhzR0f7Qbd/8hx2G4zBSJTFJcVSqrSH2zqXXqaCkFAAekVdyoia8wtvZO7NG+scgpI4trqypnED25/ssEQXwEAwCPMb09MvzOLf3NwkdRo1WanBdXRqlEtC/BRH8FtZXbWArnTbmO/4+bgsLS+blDyhsSuz8x4N8r21tUW+3lWB/GtT/QRDixyfnTNPE0Gd1VVVqs7XSrm6snNVok3pSaIEx2a+Be68tTXdVJel8MkxznFNuoVnzM7OaxzCpNy+c1c2dZQgyK67u0t6e44HetnSrVMm70uM34a56B1+yaG9qeEMM7OzMjMza7hx18zMju1zLt3iSSYbFhNz69ZtGzCr1B7T3t4mAyf7pKWlOWeSSkEwFDqKaABv89x71nnK1TnKX5DyRkfqn3/+RX66+rNc0W1ZR6Kuo0fl4oUx+eabP0SeoYBNPPwYFYHQYAwAoOF3XfH7aRc/Ha1hyBcvjsmfv/ljXuC3B49hBmjeETAMCiBqzqxKJjCTf/rnf5OHDx8LKvzo6LB8++d/sDluteqAyIWkEiqGgj+fICFUEELpSzTCsLHxiFTrDOKM6YJ0pN+Z9Onud6970/u/urqm84memV588+ZtndOxKK9ezZi4+dXSpfQemsZducYvE9jRTMNP58NM3L6jc7MUP1WjXr56LfUqri/97a/TQCLYLagOzA1D8mT0L1d7GBNOq3TyaRB7mEdqMQRo1fT2g5AhEiIG38nJ53JLbTO3bt0xGx51/eLzz8yuV1VZFQyUJO8OFUOBmUxNTcuTJ880nPmR2R8uXDynakP3rhchd7pgkvjZZRgtV5ZXLfSf755XZNVsKlvbW6k8KtC1kcZP7U9MnQAvtlW1y2Cb2c4hfoCPxABDm5i4K9M6N2ddjezNLU0ydu60dHZ2hHIWuxnNVapb1LAIosQZWIqKi2y+G+r3282tQCp9KkQZKoaCbx532vXr42qLuCe1NdU2OiCpMIM4FyJbKuD512KQtSkA2GIQac1mQ+g1FvcgY4//C8l9Rho/nT7BFArweqcbo65nm8kdfkgjTDpFuryunsB79x4YYzuuc8Na1MheW1u7O7Cl781KridTuwobFyH/SFYMZkSOMy2F9mzpxqepVqk9Nq2rQ8VQ5jW3yeUrV+X77y+bgQkvCbpgsXJbAn8aVOx0JTECDr/E2CRzhjD6RVVXSYdBeMH1X8ZN7cGQeuLEcVO/u7o6dWALF0Px2kZCMbbDLVllKJvKNRk1ESHnVcfD+ESeknrdGmAWH+QrWVXxEj3w0aMndv2qqkBPn06ap2RN9dl8KYwkxCRgawEbdN1GY5j1+9x8Dr/4PZ4sfv7d3vUe1oa3SrzNzY1Kg/X7JA4yrmE3wR7xXGOWyHOCwbNGJWWkFphNm0ZWR70ghRHoCf3hnUSi5r30tw/fy1Tam1WGYiK4RqeOj0/I1avXTY87c2ZUTmtk4KnRIfO/xxq5mOBnNgjVm5ncx4Y+yEaj86H4OjrGxxsa5DSuonWxBiBdPH/OcBkc7Fdib7KmOvw+7vF9+CldjY8rfsUlcuHCOTlzekQGB0/u4effDROBBm+M37KgRlKEfvnlr/T6UZU8elTiOGKX4nBBfWDCqb/xe6gMMCU/aMx/blQ/YSYPddAGjx9+uGyq5dkzpwyP04phEKaZXYai7lP00MtXrlnFfV0PDtitqRrxj1N8prLXoTAP7Vzbt87NnQ4YSySeTr1p+icRr0Qc+p+x1yX7HeK0F0I9CHcVlyuKy0+anAeGAsNEvTt6tGPvhSAQyuH3Ht2P8FPscDXTLww+lYZf5x5+/p0+Y/7x8lVLhsR1VRr0hRepvb3VVBmu5fnYcMwOZn3l0SA2HWghl7YIvz7YQpCc+G3ek0zkqsXY/fjJU7NVfv/DjyaVIZlho8RWGVqGsqLh7g8ePpJ7Dx5ohKqn8tAQ9NBFVYUwIDEpz2coPgGE4RPiQuWYU7sOUhMuQyZvQYjphjLzTJ7FJMUnT59ap5I2kPbfvf9QOjrbLXbFb39e4KeJhgw/xS4z+DHJc1nxe6b4PTOxHfzuKX6dH+C3h+PuC8QcLugOY+8TpUNL1ahSSlgLzATJiJd9XfOuMJhlIlet56afNAzAg+eDDfmYYTZBSlYlFHQ1XkiCbphpSZnXIDB0VIBCYnn3riRI/bNyLwRHGP2Ll69UQrivSYiXpdZGszbpO9ErpPaDiFNlhN4I6BEJNiVwwM1HASP0WZiYX/IGP5W08JAQuRkMP08lgXYMP51GcRB+Po70J3Q3r+Hu3Fusfcf9CzrI4Z0LY4FWsNlgT2SG/NLyktly+vv7pENxZKZ8usZh8KDt0B9uZcNTsQEjzgUpWWUoKuCbCxCREYDsBTRVhn3TaoLUPWv3eoFqkxr9ekO++4+/2vwcxOOzZ0/Lt9/+yebolKWZK1SbbW3nH5j4wWGGETj5B7iOP45FEr8pix7+7j8Vv+cvNBO84ncm0/jtkgBYMjixxeDnE4jBHIO39YGeVFhDWfyBB8Pwv/zrv8s1pUMMqB2dbfL1V7+RC2NnjTH7tp90GuGTnkEAGe7iw/EgJasMhb61Do6ppd/h3ie1D9iCIK1PcC+jHlb9BxrCjOHq8eOnUqe5P9Bff/vbS6bPMpMz3WItjmk2WFiHeoC9f6xeYzhFEr/XFgK+Dz9dsyYYfoBmaO1i5IFoR3khPsRvD0kDcm+PL3Hx3nfF4e1QN9RElogxw+mPV1RCWZYezZN8VIPrOtraLMiuMd0qGhyKVgxd2aMMTvuX7pPFJQCJA92WxSMsyaJ6B7Dsm5tNw+tXdLPgK9VtP+qMOM8p1EPgh52IUXVjfRc/nU7h8EuOIjzbyaap3WAIM4HBoA7Pz6G6aQLsGNU4uafm5qrsSii5aUPGf2VbrerolUgqdCT76JZsubb0Z7xxOXggXgnwgxlb5KZ6KBx+yQNP+ARTDjY10pplYcyupoLDtjoxyLfDjHmYThiLk1DC2Ct5UqdgwnOegJBmM0wbiQNgouNp/kzGb3MMJSlI/bDmww9tTqq6h3wR78H+d8Hhl7kuKVJs2cJZHEMJZ7+4WjkEIomAYyiR7DZXaYdAOBFwDCWc/eJq5RCIJAKOoUSy21ylHQLhRMAxlHD2i6uVQyCSCDiGEsluc5V2CIQTAcdQwtkvrlYOgUgi4BhKUt3mR1aE1fufVCNydpEfdfL+Bx1+77EI+s2LQglrRJRjKEH7192fEIGwEn3CCofohGZYiJsiNtHxsFTdMZQ4PVGiKQXJKucvI8o+M439bFmp5kGJ8xN5fYiUjODnre9cYomBHH7Jd3lREZkBS6W8rFxpsNwyqbFWMQmWWBGwSjPOleh+GEs4a3XISJWWlWr+jjpLps1LQSKbGl1sjK1Mv9O5jqkk7iTwq6ursyTQFZW7+NU4/BIjtv8MzAK6Izk2iaPrNDkVC92x4BgL3zU1Nhqz2X9XOPayO9tYxTbNa0bS2L3W2r7ueZ8J5Lq9qw/nC5JJW1uL9PX1WuJekkaTYGl4ZEhT8B2xkSIIQzE0PsCE53lYxbQZ6CKLX+sefi1NmcLPoxePdnwa2sUrHn57UBqQe3t8iYv3visOb4e6wUCaNTPgmVOjNmP7jabS6Oxok6Ghk9KpeYcrNSVp2mWXrj6iYeCF3gKUrDIUe0V0TR1WMdurPI2h861RAWqexVtZ+pTFnUja29jY4KWA1FGC1HvHNB9uutnaqDLdZVgYBu9BMIzAKaZDbS+y+HWZZAd+5IAlBWTm8PMx9IjA6EkTVRexxeDnneVa73oPd/2+2w8KbSgL9SRvMes7/+kf/14z+o9Zfpma2mo5GZMCMkjl/ffPIIjBh+NBSlYZCqoC+VcZoebnvSTVjQ1HLNEuOjagBW1AkMYnuhd9H1ETEZNMbSzjYbqrjgpBklT7hII426iLlpFwmJy7HEcKYq2Y2NURo44f7QQ/csp4CaqD4idGM9AO2EFLc5qHFyJiZb+mD/Dz+5f+bFTJEnWBpODUy184jiU1wligiXpdN2h4eFB6e3tszW8SulNvsAxSPPr26A8aJ8s/2IAR54KUrDKUWiWmk30n5MX0K5mZmbOk1KxT3Kup7FAhwprxHkDp0AqVUGCIAI5hFt0Ww1i6hWciytarfQEcpqamZHZm1pbRGDjZJ/2KFZj5Jer4wRzBj+x2GGozg1+J0Q40NKWLws2Anw5M4AetxeLn41hTXW2LxbGIHAycZTR6eo5b1nuk0bAWz5ZSoS95qVRXewu1B33haatJ4MeP2ZIZrEoBUyV5eK9iAlZBSpYZSq0MDPRb1ik6nUxeZ06fsmMYPXnB2PzCV65jQy61fX2JWbcm9jr/+mx/mlVdl83IVPHbQNsHBvp0PdoN84bQvgu60NfAyf59LwRqgsPvPfr78eu3jHBIG/5CXzCVeAylTgevIV0AjMxnMBNeynO6+DlMpTrmBeL5LHtLVny+Q3+26TFogc2vw/taZe8bv8WgK5L+IBavdj6DRRUlAxzZ9FjoC4zAKkjJKkOhcqzkxvIJFy+OkRnYVAlEuYYGj6HEVh53GSN4qbrMivU7G/YKs1nAZPKgQCSoU6dOjUi32mku/c0XRrWxS5H6zXT4+Ui8/9yPX5dcuvR5Qvz8u8CbFfG6u7vk15e+MFtL7FKk/nUwDxvQbBBjIFOVfMtjJr4b3AY7/4aIfrIER5+umAgGrJ7IagFg5G9BmpVVhoLI69kGvKU1P1XRapUGjh3rEpaHrJh+aa7bbhXNWACLkSVfCsTJ6myfWqHN4Re/xz38PE9c/Cv2H00WbyQd6Azm3qUGUdQp1tTuUq8KXj8GQtSPqBdscyzBgd0ENSeTJVToNDYdkV99dsF87Ldv35EatSd8+flnxkXhnq4cjIDD72B8PnUWZgHTYBC7qGslIyGy4NtxlWxQR5G0KyqCGUQ/VYf0z/vTG9J/QibuDBVDwVg5PDRgkYAtKo6x1u9pUw26BOklrAW9G8MWurnp36qelWmUIxvnclUijZ+Nmoqf4oULHSwNzxzih42ksrJY2lpbbVGy1tYW864gZbNMJwyGa8JWUMNwICCJYXMp0X3fAM76Ubm0/YSKobB+MOse4xrr7z9hQCCWYZXGthLWQt2IEajVyEazAWmnEuXIhj0oVyXS+Klej24PXmwYSzEeEoKey+LZaOpkZGTIVG+WTcG1ekTd/Ll8MVNpMzTHUrkMKARlImkxwJlqo3UvK1ebZI5skLntrU+gBDCMAmwibZ+4Os3TCAy7QoN9ZECA8Nxw3UaEK2trsqyLxKODDw6ctI5Os6Yp35Zr/HwcU67oBzeAX4+qGSMjg7ZYN2tJE9Q1oPgRdp7rwkjf2pp5m51HavyPJTpvP/ZIqu1FkmMQRooaHR0yOxBtGBkeMtsPAw0SSy5KqBhKNhts7j/tNUYgNiv2qfv7Ojj1WhCOf17Xm21paTLfPotc8UJ0q4G5TcXmfCjx8PORC/IygA34jZ0/K80tzbbcpuGnS27iBcMYmlfFaFBbtJ8EAzUR1zlq2ejosD2XReEJfmvXJUtPqqRfi+Sng3UuSm5+JRctOeA3EPfg4oiDzNQk6pXCpyciorunz8HxDHSqJ4oYiAY16iEmNzc3m6SVD96phPhV6Yxsbbtn6wiIX4fip4TfoDE6Hn5Nip+K8Pr8fCmoTi3KNFtaWmzdYtrFfJ0WpRXOpVtQxYjghgZRc4i3KS+vMFMB0n5s9HW6v5HsfQXBUAAcfRxPEeHFTWqXYXT1Yz+qdSZsiQUQJQvb/ut8iQfRvavrqEWGMmowKvDbUS/x8GOlKULfwRRbUZB25jt+fv/DIAcHB+T161mZmLhjh0c0tJ5jdbV1/mVpfYIhag4D2Y7GlTAIYKDNlWTiV7ogGAqgIj1g1yAiFX0TifPEiV4zAptIGND4R4cyUrPlW/kIPzVQUvpOKH6KKdgGJdx8xs/A0n9IX3gtYcZIKnwOqVeTYwR6Bi0wdQa1wywFwlDwutRY1G6DMpMVNZpSiHNp1wAz8y4EkFAOswNz8duMdHHxU0zb2x1+yfYBA9n5sTPGiJeWfmO3Wd4YZSacy4dSEAwF8a+8vDilqN186NxMtcHhlxkkMZR2dLC1Z+aBIXxK+pa0EDbGVckh4BA4XAQiLKF4SWgs16ZKIEwsJMrSN0QxsdCVgxBw+B2ETjLniIomiMxPuIUdyDeGYs/gO8cKqUTyraOPYB4E61jIu7rKSko13Fg7F7ESVzCd6Up8BBx+8XFJ9ShMo6qyyly2PgMhBB5XN14+mE2hMZRISih0Eh1IzEf/yROytLwsSzqJi7D9Hk1c1NLabB2aKoEUyvUOv8z0NIyjs7NNp4n0yvSLl2pYVRe6hicwH41E0kHjczJTy9w+JZIMxTMSlhkD+f3vvtJowH5N7bdolvKxc2cs2hKvhCvxEXD4xccl1aMkyiJFI0FlRzR37qKml8Rbc7y7W7o0DB5XeqFJKEWano95z5ErVHtN583Mzs7JmzcLKqWsWOQrSXQadidyoRa5Eh8Bh198XFI5CoZE9S5oRvpJTee5sbFpOXygP4Img+Z+TaUuYbk2sgwFAOlMOpEUdiRCNp1WRwtETUYGbAWuJEbA4ZcYm2TPwFSgv1Ud3Ha2dzwj7W6AI/RYaCXSDKXQOsu11yEQdgScKyTsPeTq5xCIEAKOoUSos1xVHQJhR8AxlLD3kKufQyBCCPw/EefOSTdY810AAAAASUVORK5CYII=;" parent="1" vertex="1">
          <mxGeometry x="246" y="82" width="166" height="44.51" as="geometry" />
        </mxCell>
        <mxCell id="JkvlF9FbP7FgS3dPEu8n-69" value="" style="rounded=1;whiteSpace=wrap;html=1;fillColor=#cce5ff;strokeColor=#36393d;" parent="1" vertex="1">
          <mxGeometry x="117.5" y="390" width="30" height="30" as="geometry" />
        </mxCell>
        <mxCell id="JkvlF9FbP7FgS3dPEu8n-70" value="" style="rounded=1;whiteSpace=wrap;html=1;fillColor=#fff2cc;strokeColor=#d6b656;" parent="1" vertex="1">
          <mxGeometry x="177.5" y="390" width="30" height="30" as="geometry" />
        </mxCell>
        <mxCell id="JkvlF9FbP7FgS3dPEu8n-71" value="" style="rounded=1;whiteSpace=wrap;html=1;fillColor=#cce5ff;strokeColor=#36393d;" parent="1" vertex="1">
          <mxGeometry x="227.5" y="390" width="30" height="30" as="geometry" />
        </mxCell>
        <mxCell id="JkvlF9FbP7FgS3dPEu8n-74" value="" style="rounded=1;whiteSpace=wrap;html=1;fillColor=#fff2cc;strokeColor=#d6b656;" parent="1" vertex="1">
          <mxGeometry x="277.5" y="390" width="30" height="30" as="geometry" />
        </mxCell>
        <mxCell id="JkvlF9FbP7FgS3dPEu8n-75" style="edgeStyle=orthogonalEdgeStyle;rounded=0;orthogonalLoop=1;jettySize=auto;html=1;exitX=0.5;exitY=0;exitDx=0;exitDy=0;curved=1;entryX=0.125;entryY=1.075;entryDx=0;entryDy=0;entryPerimeter=0;dashed=1;" parent="1" source="JkvlF9FbP7FgS3dPEu8n-69" target="JkvlF9FbP7FgS3dPEu8n-80" edge="1">
          <mxGeometry relative="1" as="geometry">
            <mxPoint x="132.5" y="420" as="sourcePoint" />
            <mxPoint x="167.5" y="490" as="targetPoint" />
            <Array as="points">
              <mxPoint x="132.5" y="380" />
              <mxPoint x="157.5" y="380" />
              <mxPoint x="157.5" y="440" />
              <mxPoint x="132.5" y="440" />
              <mxPoint x="132.5" y="500" />
              <mxPoint x="155.5" y="500" />
            </Array>
          </mxGeometry>
        </mxCell>
        <mxCell id="JkvlF9FbP7FgS3dPEu8n-78" style="edgeStyle=orthogonalEdgeStyle;rounded=0;orthogonalLoop=1;jettySize=auto;html=1;exitX=0.75;exitY=0;exitDx=0;exitDy=0;entryX=0.5;entryY=1;entryDx=0;entryDy=0;" parent="1" source="JkvlF9FbP7FgS3dPEu8n-80" target="JkvlF9FbP7FgS3dPEu8n-81" edge="1">
          <mxGeometry relative="1" as="geometry">
            <Array as="points">
              <mxPoint x="343" y="442" />
            </Array>
          </mxGeometry>
        </mxCell>
        <mxCell id="JkvlF9FbP7FgS3dPEu8n-79" style="edgeStyle=orthogonalEdgeStyle;rounded=0;orthogonalLoop=1;jettySize=auto;html=1;exitX=0.75;exitY=0;exitDx=0;exitDy=0;entryX=0.5;entryY=1;entryDx=0;entryDy=0;" parent="1" source="JkvlF9FbP7FgS3dPEu8n-80" target="JkvlF9FbP7FgS3dPEu8n-82" edge="1">
          <mxGeometry relative="1" as="geometry" />
        </mxCell>
        <mxCell id="JkvlF9FbP7FgS3dPEu8n-81" value="" style="rounded=1;whiteSpace=wrap;html=1;fillColor=#cce5ff;strokeColor=#36393d;" parent="1" vertex="1">
          <mxGeometry x="327.5" y="390" width="30" height="30" as="geometry" />
        </mxCell>
        <mxCell id="JkvlF9FbP7FgS3dPEu8n-82" value="" style="rounded=1;whiteSpace=wrap;html=1;fillColor=#fff2cc;strokeColor=#d6b656;" parent="1" vertex="1">
          <mxGeometry x="377.5" y="390" width="30" height="30" as="geometry" />
        </mxCell>
        <mxCell id="JkvlF9FbP7FgS3dPEu8n-83" value="" style="rounded=1;whiteSpace=wrap;html=1;fillColor=#fff2cc;strokeColor=#d6b656;" parent="1" vertex="1">
          <mxGeometry x="485" y="390" width="30" height="30" as="geometry" />
        </mxCell>
        <mxCell id="JkvlF9FbP7FgS3dPEu8n-84" value="" style="endArrow=classic;html=1;rounded=0;" parent="1" edge="1">
          <mxGeometry width="50" height="50" relative="1" as="geometry">
            <mxPoint x="132.5" y="440" as="sourcePoint" />
            <mxPoint x="132" y="420" as="targetPoint" />
          </mxGeometry>
        </mxCell>
        <mxCell id="JkvlF9FbP7FgS3dPEu8n-85" value="" style="endArrow=classic;html=1;rounded=0;exitX=0.2;exitY=0.079;exitDx=0;exitDy=0;exitPerimeter=0;entryX=0.5;entryY=1;entryDx=0;entryDy=0;" parent="1" source="JkvlF9FbP7FgS3dPEu8n-80" target="JkvlF9FbP7FgS3dPEu8n-70" edge="1">
          <mxGeometry width="50" height="50" relative="1" as="geometry">
            <mxPoint x="142.5" y="450" as="sourcePoint" />
            <mxPoint x="167.5" y="430" as="targetPoint" />
          </mxGeometry>
        </mxCell>
        <mxCell id="JkvlF9FbP7FgS3dPEu8n-86" style="edgeStyle=orthogonalEdgeStyle;rounded=0;orthogonalLoop=1;jettySize=auto;html=1;exitX=0.5;exitY=0;exitDx=0;exitDy=0;curved=1;entryX=0.125;entryY=1.075;entryDx=0;entryDy=0;entryPerimeter=0;dashed=1;" parent="1" edge="1" source="JkvlF9FbP7FgS3dPEu8n-89">
          <mxGeometry relative="1" as="geometry">
            <mxPoint x="197.5" y="390" as="sourcePoint" />
            <mxPoint x="220.5" y="483" as="targetPoint" />
            <Array as="points">
              <mxPoint x="193" y="295" />
              <mxPoint x="223" y="295" />
              <mxPoint x="223" y="440" />
              <mxPoint x="198" y="440" />
              <mxPoint x="198" y="500" />
              <mxPoint x="221" y="500" />
            </Array>
          </mxGeometry>
        </mxCell>
        <mxCell id="JkvlF9FbP7FgS3dPEu8n-89" value="" style="shape=orEllipse;perimeter=ellipsePerimeter;whiteSpace=wrap;html=1;backgroundOutline=1;" parent="1" vertex="1">
          <mxGeometry x="182.5" y="308" width="20" height="20" as="geometry" />
        </mxCell>
        <mxCell id="JkvlF9FbP7FgS3dPEu8n-91" value="" style="endArrow=classic;html=1;rounded=0;entryX=0.5;entryY=1;entryDx=0;entryDy=0;exitX=0.953;exitY=0.105;exitDx=0;exitDy=0;exitPerimeter=0;" parent="1" target="JkvlF9FbP7FgS3dPEu8n-83" edge="1" source="JkvlF9FbP7FgS3dPEu8n-80">
          <mxGeometry width="50" height="50" relative="1" as="geometry">
            <mxPoint x="444.5" y="442" as="sourcePoint" />
            <mxPoint x="537.5" y="410" as="targetPoint" />
          </mxGeometry>
        </mxCell>
        <mxCell id="JkvlF9FbP7FgS3dPEu8n-92" style="edgeStyle=orthogonalEdgeStyle;rounded=0;orthogonalLoop=1;jettySize=auto;html=1;exitX=0.5;exitY=0;exitDx=0;exitDy=0;curved=1;entryX=0.125;entryY=1.075;entryDx=0;entryDy=0;entryPerimeter=0;dashed=1;" parent="1" edge="1">
          <mxGeometry relative="1" as="geometry">
            <mxPoint x="337.5" y="390" as="sourcePoint" />
            <mxPoint x="360.5" y="483" as="targetPoint" />
            <Array as="points">
              <mxPoint x="337.5" y="380" />
              <mxPoint x="362.5" y="380" />
              <mxPoint x="362.5" y="440" />
              <mxPoint x="337.5" y="440" />
              <mxPoint x="337.5" y="500" />
              <mxPoint x="360.5" y="500" />
            </Array>
          </mxGeometry>
        </mxCell>
        <mxCell id="JkvlF9FbP7FgS3dPEu8n-93" style="edgeStyle=orthogonalEdgeStyle;rounded=0;orthogonalLoop=1;jettySize=auto;html=1;exitX=0.5;exitY=0;exitDx=0;exitDy=0;curved=1;entryX=0.125;entryY=1.075;entryDx=0;entryDy=0;entryPerimeter=0;dashed=1;" parent="1" edge="1" source="cc51Yp4sVSMx9fGjO8_6-9">
          <mxGeometry relative="1" as="geometry">
            <mxPoint x="386.5" y="390" as="sourcePoint" />
            <mxPoint x="409.5" y="483" as="targetPoint" />
            <Array as="points">
              <mxPoint x="397" y="308" />
              <mxPoint x="397" y="299" />
              <mxPoint x="427" y="299" />
              <mxPoint x="427" y="440" />
              <mxPoint x="387" y="440" />
              <mxPoint x="387" y="500" />
              <mxPoint x="410" y="500" />
            </Array>
          </mxGeometry>
        </mxCell>
        <mxCell id="JkvlF9FbP7FgS3dPEu8n-97" value="" style="shape=singleArrow;direction=north;whiteSpace=wrap;html=1;fillColor=#000000;" parent="1" vertex="1">
          <mxGeometry x="321.5" y="264" width="10" height="29" as="geometry" />
        </mxCell>
        <mxCell id="JkvlF9FbP7FgS3dPEu8n-99" value="" style="shape=singleArrow;direction=north;whiteSpace=wrap;html=1;fillColor=#000000;" parent="1" vertex="1">
          <mxGeometry x="321.5" y="143" width="10" height="40" as="geometry" />
        </mxCell>
        <mxCell id="JkvlF9FbP7FgS3dPEu8n-80" value="LLM" style="rounded=1;whiteSpace=wrap;html=1;fillColor=#d0cee2;strokeColor=#56517e;" parent="1" vertex="1">
          <mxGeometry x="112.5" y="442" width="406.5" height="38" as="geometry" />
        </mxCell>
        <mxCell id="cc51Yp4sVSMx9fGjO8_6-12" style="edgeStyle=orthogonalEdgeStyle;rounded=0;orthogonalLoop=1;jettySize=auto;html=1;exitX=0.5;exitY=0;exitDx=0;exitDy=0;entryX=0.5;entryY=1;entryDx=0;entryDy=0;" edge="1" parent="1" source="cc51Yp4sVSMx9fGjO8_6-1" target="JkvlF9FbP7FgS3dPEu8n-89">
          <mxGeometry relative="1" as="geometry" />
        </mxCell>
        <mxCell id="cc51Yp4sVSMx9fGjO8_6-1" value="" style="rounded=1;whiteSpace=wrap;html=1;fillColor=#fff2cc;strokeColor=#d6b656;" vertex="1" parent="1">
          <mxGeometry x="176" y="344" width="30" height="30" as="geometry" />
        </mxCell>
        <mxCell id="cc51Yp4sVSMx9fGjO8_6-14" style="edgeStyle=orthogonalEdgeStyle;rounded=0;orthogonalLoop=1;jettySize=auto;html=1;exitX=0.5;exitY=0;exitDx=0;exitDy=0;entryX=0.5;entryY=1;entryDx=0;entryDy=0;" edge="1" parent="1" source="cc51Yp4sVSMx9fGjO8_6-2" target="cc51Yp4sVSMx9fGjO8_6-7">
          <mxGeometry relative="1" as="geometry" />
        </mxCell>
        <mxCell id="cc51Yp4sVSMx9fGjO8_6-2" value="" style="rounded=1;whiteSpace=wrap;html=1;fillColor=#fff2cc;strokeColor=#d6b656;" vertex="1" parent="1">
          <mxGeometry x="277.5" y="344" width="30" height="30" as="geometry" />
        </mxCell>
        <mxCell id="cc51Yp4sVSMx9fGjO8_6-17" style="edgeStyle=orthogonalEdgeStyle;rounded=0;orthogonalLoop=1;jettySize=auto;html=1;exitX=0.5;exitY=0;exitDx=0;exitDy=0;entryX=0.5;entryY=1;entryDx=0;entryDy=0;" edge="1" parent="1" source="cc51Yp4sVSMx9fGjO8_6-3" target="cc51Yp4sVSMx9fGjO8_6-9">
          <mxGeometry relative="1" as="geometry" />
        </mxCell>
        <mxCell id="cc51Yp4sVSMx9fGjO8_6-3" value="" style="rounded=1;whiteSpace=wrap;html=1;fillColor=#fff2cc;strokeColor=#d6b656;" vertex="1" parent="1">
          <mxGeometry x="375.5" y="344" width="30" height="30" as="geometry" />
        </mxCell>
        <mxCell id="cc51Yp4sVSMx9fGjO8_6-4" value="" style="rounded=1;whiteSpace=wrap;html=1;fillColor=#cce5ff;strokeColor=#36393d;" vertex="1" parent="1">
          <mxGeometry x="435" y="390" width="30" height="30" as="geometry" />
        </mxCell>
        <mxCell id="cc51Yp4sVSMx9fGjO8_6-21" style="edgeStyle=orthogonalEdgeStyle;rounded=0;orthogonalLoop=1;jettySize=auto;html=1;exitX=0.5;exitY=0;exitDx=0;exitDy=0;" edge="1" parent="1" source="cc51Yp4sVSMx9fGjO8_6-5">
          <mxGeometry relative="1" as="geometry">
            <mxPoint x="500" y="329" as="targetPoint" />
          </mxGeometry>
        </mxCell>
        <mxCell id="cc51Yp4sVSMx9fGjO8_6-5" value="" style="rounded=1;whiteSpace=wrap;html=1;fillColor=#fff2cc;strokeColor=#d6b656;" vertex="1" parent="1">
          <mxGeometry x="485" y="344" width="30" height="30" as="geometry" />
        </mxCell>
        <mxCell id="cc51Yp4sVSMx9fGjO8_6-7" value="" style="shape=orEllipse;perimeter=ellipsePerimeter;whiteSpace=wrap;html=1;backgroundOutline=1;" vertex="1" parent="1">
          <mxGeometry x="282.5" y="308" width="20" height="20" as="geometry" />
        </mxCell>
        <mxCell id="cc51Yp4sVSMx9fGjO8_6-9" value="" style="shape=orEllipse;perimeter=ellipsePerimeter;whiteSpace=wrap;html=1;backgroundOutline=1;" vertex="1" parent="1">
          <mxGeometry x="382.5" y="308" width="20" height="20" as="geometry" />
        </mxCell>
        <mxCell id="cc51Yp4sVSMx9fGjO8_6-10" value="" style="shape=orEllipse;perimeter=ellipsePerimeter;whiteSpace=wrap;html=1;backgroundOutline=1;" vertex="1" parent="1">
          <mxGeometry x="490" y="308" width="20" height="20" as="geometry" />
        </mxCell>
        <mxCell id="cc51Yp4sVSMx9fGjO8_6-11" value="···" style="text;html=1;align=center;verticalAlign=middle;whiteSpace=wrap;rounded=0;fontSize=20;" vertex="1" parent="1">
          <mxGeometry x="170" y="370" width="42" height="22" as="geometry" />
        </mxCell>
        <mxCell id="cc51Yp4sVSMx9fGjO8_6-13" value="···" style="text;html=1;align=center;verticalAlign=middle;whiteSpace=wrap;rounded=0;fontSize=20;" vertex="1" parent="1">
          <mxGeometry x="271.5" y="370" width="42" height="22" as="geometry" />
        </mxCell>
        <mxCell id="cc51Yp4sVSMx9fGjO8_6-18" style="edgeStyle=orthogonalEdgeStyle;rounded=0;orthogonalLoop=1;jettySize=auto;html=1;exitX=0.5;exitY=0;exitDx=0;exitDy=0;curved=1;entryX=0.125;entryY=1.075;entryDx=0;entryDy=0;entryPerimeter=0;dashed=1;" edge="1" parent="1">
          <mxGeometry relative="1" as="geometry">
            <mxPoint x="292" y="310" as="sourcePoint" />
            <mxPoint x="319.5" y="485" as="targetPoint" />
            <Array as="points">
              <mxPoint x="292" y="297" />
              <mxPoint x="322" y="297" />
              <mxPoint x="322" y="442" />
              <mxPoint x="297" y="442" />
              <mxPoint x="297" y="502" />
              <mxPoint x="320" y="502" />
            </Array>
          </mxGeometry>
        </mxCell>
        <mxCell id="cc51Yp4sVSMx9fGjO8_6-19" style="edgeStyle=orthogonalEdgeStyle;rounded=0;orthogonalLoop=1;jettySize=auto;html=1;exitX=0.5;exitY=0;exitDx=0;exitDy=0;curved=1;entryX=0.125;entryY=1.075;entryDx=0;entryDy=0;entryPerimeter=0;dashed=1;" edge="1" parent="1">
          <mxGeometry relative="1" as="geometry">
            <mxPoint x="242.5" y="390" as="sourcePoint" />
            <mxPoint x="265.5" y="483" as="targetPoint" />
            <Array as="points">
              <mxPoint x="242.5" y="380" />
              <mxPoint x="267.5" y="380" />
              <mxPoint x="267.5" y="440" />
              <mxPoint x="242.5" y="440" />
              <mxPoint x="242.5" y="500" />
              <mxPoint x="265.5" y="500" />
            </Array>
          </mxGeometry>
        </mxCell>
        <mxCell id="cc51Yp4sVSMx9fGjO8_6-20" value="···" style="text;html=1;align=center;verticalAlign=middle;whiteSpace=wrap;rounded=0;fontSize=20;" vertex="1" parent="1">
          <mxGeometry x="479" y="370" width="42" height="22" as="geometry" />
        </mxCell>
        <mxCell id="cc51Yp4sVSMx9fGjO8_6-23" style="edgeStyle=orthogonalEdgeStyle;rounded=0;orthogonalLoop=1;jettySize=auto;html=1;exitX=0.5;exitY=0;exitDx=0;exitDy=0;curved=1;entryX=0.125;entryY=1.075;entryDx=0;entryDy=0;entryPerimeter=0;dashed=1;" edge="1" parent="1">
          <mxGeometry relative="1" as="geometry">
            <mxPoint x="451" y="389" as="sourcePoint" />
            <mxPoint x="474" y="482" as="targetPoint" />
            <Array as="points">
              <mxPoint x="451" y="379" />
              <mxPoint x="476" y="379" />
              <mxPoint x="476" y="439" />
              <mxPoint x="451" y="439" />
              <mxPoint x="451" y="499" />
              <mxPoint x="474" y="499" />
            </Array>
          </mxGeometry>
        </mxCell>
        <mxCell id="cc51Yp4sVSMx9fGjO8_6-24" value="···" style="text;html=1;align=center;verticalAlign=middle;whiteSpace=wrap;rounded=0;fontSize=20;" vertex="1" parent="1">
          <mxGeometry x="372" y="370" width="42" height="22" as="geometry" />
        </mxCell>
      </root>
    </mxGraphModel>
  </diagram>
</mxfile>
